<?xml version="1.0" encoding="utf-8"?>
<!-- Generator: Adobe Illustrator 18.0.0, SVG Export Plug-In . SVG Version: 6.00 Build 0)  -->
<!DOCTYPE svg PUBLIC "-//W3C//DTD SVG 1.1//EN" "http://www.w3.org/Graphics/SVG/1.1/DTD/svg11.dtd">
<svg version="1.1" id="Слой_2" xmlns="http://www.w3.org/2000/svg" xmlns:xlink="http://www.w3.org/1999/xlink" x="0px" y="0px"
	 viewBox="550.1 0 671.4 1200" enable-background="new 550.1 0 671.4 1200" xml:space="preserve">
<path fill="#000000"  d="M1172.8,198.1c-11.1,7.7-40,21.9-71.6,32.7
	c-0.6-2.7-1.9-4.7-4-4.9c-4.7-0.5-8.5-2.3-12.4,1.7c-4.3-1.3-6.3-4-11.2-3.5c-3.7,0.4-6.9,1.1-10,3.3c-3.3-2.6-13.3-1.3-16.5,0.7
	c-1.2,0.7-2.4,2.8-3.5,3c-1,0.2-2.7-1-4-1c-1.9,0.1-5.4,2.4-6.8,3.8c-2.5,2.6-3.3,6.4-3.9,10.2c-38.1-6.1-116-58.9-167.6-89.1
	c-7.8-4.6-27.7-16.1-53.3-31.1c3.8-0.9,8.3-0.5,12-0.8c5.2-0.4,11.2-0.8,15.8-3.1c1.1-6.9-12.4-8.1-16.4-8.8
	c-4.8-0.8-7.5-0.8-7.1-6.5c0.3-3.5,1.2-6.2,2.4-9.4c2.5-6.9,3.6-14,2.9-21.9c-0.5-6.1-4.4-17.1-12.3-15.5c-3.2-8-6.5-10.2-15.4-9.4
	c-0.7-8.7-13.7-9.2-17.2-2.5c-1.7-4.8-7.5-2.2-10.2,0.1c-3,2.6-4,7.3-5.1,10.8c-2.8,8.5-4.2,20.4-0.6,28.9h3.5
	c-0.2,0.2-1.9,3.9-3.7,8.1C680.2,49.6,591.4-2,591.4-2h-41.3c0,0,108.4,63.8,202.3,119.5c-0.2,0.9-0.4,1.7-0.8,2.2
	c-2.4,3.6-9.5,2.1-13.1,2.8c-4.1,0.8-6.4,3.4-9.2,6.5c2.4-1.9,6.8-2.9,9.6-1.2c-1.7,1-3.8,0-5.5,1.2c1.5,0.2,2.7,0.9,3.3,2.2
	c-1.5,0.7-2.9,1.6-4.5,1.9c1.6,0.3,3.3,1.1,3.3,2.9c-3.1,0.7-6.5-1.7-10.1-0.6c-2.9,0.8-7.4,2.2-9.7,3.7c1.4,0,2.6,0.4,3.9,0.5
	c-1.1,0.2-2.2,0.6-3.4,0.7c0.1,1.9,2.7,2.6,4.5,2.9c-5.3-0.1-10.2,0-15,1.2c2,0.1,6.6,1.4,7.4,2.8c-2.5,0.4-4.5-0.4-6.9-0.5
	c2.2,1.1,4.3,2.7,6.4,3.4c2.1,0.7,5.8,0,7.3,1.5c-1.8,1.2-7.1,2.2-9.1,1.1c0.9,0.7,1.6,1.4,2.7,1.9c-1.6,0.9-4.8,0.3-7,0.5
	c1,1.5,3.4,2,5,2.8c-2.7,1.4-6.7-0.6-9,1.2c4.5-0.4,11.3,1.3,14.9,3.5c-2.9,2.1-8.5-1.1-12.1-0.5c2.3,1.8,6.1,1.7,8.8,3.6
	c4.9,3.5-0.3,3.6-3.4,4.7c-3.5,1.2-5.8,3.3-9.6,4c-3.3,0.6-7.6,0.7-10.6,1.6c1.7,1.5,4.8,2,7,2.1c-1.4,0.5-3.9,1.3-5.8,1.2
	c2.2,3.8,7.7,5,11.7,5.3c0.1,0.6,0.1,1,0,1.6c-2.1,0.1-3.8,0.2-5.7,0.8c0.4,1.8,2.7,2.8,0.6,4.5c1.6,0.8,3.1,0.9,3.4,2.4
	c-4.2,1-8.5,2.7-12.4,4.1c-5,1.7-7.6,1.1-12.6,1.3c1.9,1.5,5.1,1.4,6.8,2.3c-4.2,0.8-8.4,0.8-12.8,0.7c2.3,0.4,10.3,1.5,10.4,3.4
	c-1.3,0.5-2.7,1-4.2,1.3c0.6,0.2,1,0.5,1.3,1.1c-1.7,0.3-3.3,1.2-5,1.3c2.2,0.3,4.5,1.5,6.8,1.7c3.2,0.3,6-0.7,9.2-0.6
	c-3.8,2.4-7.7,2.5-12.1,3.1c1.4,0.9,3.8,1.7,5.8,1.8c-0.5,0.4-1.2,1.7-1.6,2.1c1.5,0.2,3,0.1,4.5,0.2c-0.7,0.3-1.2,0.8-2,1.1
	c1.5,0.5,3.4,0.8,5,0.7c0.6,2.5-5.2,8.6-7.5,9.5c0.8,0.9,1.4,1.2,2.8,1.2c-4.9,10.4-10.7,20.5-16.3,30.7c-6,11-10.1,23.1-15,34.6
	c-4.3,1.3-9.4,0.4-14,0.8c1.1,2.1,4.1,2.5,6.4,2.4c-2.8,4.3-9.2,4.1-13.9,4c2.7,1.9,6.5,2.2,9.2,3.6c6.1,3.2-1.3,3.1-2.7,5.8
	c1.5,0.2,1.3,0.7,2.1,1.3c-1.6,1.1-3.3,2.4-5.1,3.1c-0.9,2.9,1.7,3.1,3.9,2.9c0.1,0.6,0.1,1,0,1.6c-3.2,0.7-6.1,2.8-9.3,3.2
	c1.3,3.2,9.5,0.9,8.1,5.7c-6,0.8-10.2,6-13.3,10.8c1.7-1.2,5.6-3.7,6.8-1.4c-7.1,3.1-8.6,9.1-8.8,16.5c1.2-3.2,2.7-7,6.4-7.4
	c0.6,3.2-3.2,6.8-4,10c-0.9,3.4-0.6,6.9-0.6,10.4c0.2-3.1,4.5-11.6,8.2-11.5c-1.6,2.9-3.1,5.8-4.4,9c0.8-1.4,2.5-2.3,3.8-3.2
	c0.3,3.7-4.5,7-4,11.5c1.6-2.4,4.7-3.2,6-5.5c-0.9,4.2-0.9,11-3.2,15.5c2.5-2.5,5.4-4.8,7.3-7.8c-0.2,8.6-1.5,17.8-0.5,26.3
	c0.6-1.6,1.1-4.3,1.6-6.2c2.9,4.7-1.7,14.4,2.2,18.6c-0.1-3.4,0.7-11.5,2.7-13.9c1.9,4.6,0.2,11.8,1,16.8c0.7,4,0.7,11.7,3.6,14.7
	c-0.1-3-0.6-15.3,2.8-15.6c0.3,6.6,2.2,12.6,3.8,18.8c1.5,5.9,1.6,11.8,2.8,17.5c0-3.1,1.6-6.4,1.2-9.7c1,2.9,2.2,5.7,3,8.5
	c0-1.5,0-2.9,0.1-4.3c3.6,2.5,3.7,10,5.1,13.3c0.3-2,1-5.6,1.7-7c2.7,6,6.7,12.8,6.7,19.3c0.5-2.7,0.2-5.9,1.2-8.5
	c0.9,4.1,1.5,9.2,2.9,13.2c1-4.4,3.2,1.7,3.7,3.3c1.1,3.6,1.1,7.2,1,10.9c1.5-1.4,1.5-3.8,1.9-5.6c5.7,2.7,2,20.2,1.1,24.7l3,2.4
	c-4.8,0.1-0.1,14.1,0.5,16.5c1.3,5.7,0.8,11.8-0.5,17.5c0.4-0.8,1.3-1.6,1.7-2.1c0.3,3,0.2,7.7-1.1,10.3c0.4-0.2,0.8-0.2,1.1-0.3
	c1.9,4.4-0.1,9.1-0.5,13.5c-0.4,4.5-0.7,9-1,13.6c-0.8,9.1,1,17.4-1.2,25.9c0.4-0.5,1.7-1.2,2.2-1.6c1.1,4.6-2.9,14.1-5,18.2
	c0.3-0.1,0.5-0.3,0.8-0.5c0.3,2.9-0.3,4.9-1.2,7.6c-1.1,3.3-0.4,3.4,0.3,6.4c1.1,4.5-3,9.2-1.8,13.6c1.2-1.2,2-2.9,3.9-3.4
	c1.3,12.3-7.3,23.5-13.9,33.5c3.2-1.3,6.1-5.9,9.2-6.4c0.4,4-2.9,10.2-4.2,14.1c-1.4,4.2-3.3,10.1-6.7,13c1.7,0.3,3.3-0.6,4.4-1.7
	c1.3,4.5-3.4,11.7-5.4,15.7c-2.9,5.9-7.7,13.9-7.5,20.6c1.9-3,5.2-11.9,9.4-11.5c-0.5,2.3-2.1,4.7-3,7.1c-1.4,3.8-1.7,7.9-2.2,11.8
	c-0.9,5.9-2.4,13.7-1.8,19.7c1.5-2.9,3.7-11.7,7.6-11.5c-1,3.3-2.9,6.9-2.2,10.4c1.7-2.1,2.2-4.9,3.5-7.3c-0.1,4.2-1.3,7.8-2.3,11.5
	c0.8-0.6,1.6-2.1,2.1-2.8c0,6,0.2,11.2-1,17.2c-0.9,4.4-2.3,8.9-4,13.1c1.1-2,2.8-3.6,3.9-5.6c1.4-2.5,1.4-6.3,2.9-8.2
	c2.6,5.6,0,12.8-1,18.2c-1.3,6.7-3.9,13.1-6.6,19.5c-2.7,6.3-6.1,13.3-9.7,19c-3.8,6-8.9,10.7-13.2,16.4l-4.1,4.1
	c-3.5,1.2-7.6,3.3-11.2,4.9c-3,1.3-9.3,2.3-11.6,4.6c2.2-0.9,4.6-0.3,6.8-1.1c-2.1,2.1-5.8,3.7-8.6,5.2c1.4,0.2,2,0.6,2.7,1.6
	c-4.4-0.2-8.9,4.2-12.1,6.7c1.8-1.8,4.8-1.2,7.3-1.3c-3.8,1.6-8.7,1.7-11.4,5.4c1.1-0.6,2.5-0.9,3.9-0.5c-3.3,2.6-7.8,3.5-10.4,7.5
	c2.7-0.8,5.5-2.6,8.6-2.2c-1.2,1.8-4.1,2-5.9,3.2c-2.1,1.5-3.4,3.8-5.8,5.1c1.7,1.1,4.5-0.1,6.5-0.5c-1.6,1.5-4.3,1.3-4.7,3.2
	c0.8-0.1,2,0.4,2.8,0.2c-2,2.6-7,3.1-8.7,5.7c2.3,0.2,5.5,0.7,7.4-0.9c-2.9,3.3-8.6,5.8-10.4,9.7c1.6-0.4,3-1.2,4.6-1
	c-0.3,2.3-2.8,2.9-4.5,4.2c-3.3,2.4-5.9,6-8.3,9.3c-3.4,4.6-4.7,8.9-6.5,14.1c3-4.6,6.9-9,12.1-11.7c-2.6,1.8-4.6,4.5-5,7.5
	c2.2-0.9,4.8-2.3,6.9-3.4c-1.5,5.9-2.5,12.4-6.8,17.1c2.8-1.7,5.1-3.7,7.3-5.9c1,4.2-2.5,9.2-5.3,12.1c2.8-1.6,4.8-2.3,7.2-4.8
	c-1,1.2-1,4.1-1.3,5.6c-0.5,2.8-1.6,5-2.8,7.7c-2.3,5-3.1,10.2-4.9,15.1c2.8-3.3,4.6-8.7,8.2-10.9c-1.2,4-6.9,13.3-4.2,17
	c1.7-2.6,4.1-8.1,7.8-7.5c-2.8,4.9-6.1,16.4-3.1,21.7c1.1-2.9,3.6-6.1,5.5-8.6c0.1,1.4-0.3,2.6-1,3.8c1.2-0.5,2.4-1.7,3.8-2.2
	c0.7,2.5-0.8,7.6-1.6,9.9c1.9-0.9,2.8-3.2,4.6-4.5c-0.4,5.8-4.9,11.2-2.2,17.5c2.2-1.6,2.7-5.8,5.1-7.6c-0.4,3.8-4.4,7.3-4.6,11.5
	c1.2-1.9,2.4-4,3.9-5.8c-2.7,3-2.4,11-2.7,14.8c-0.3,3.7-2.1,11.6-0.1,14.7c1.5-7,3.9-14.1,8.4-19.8c-1,4.7-4,10-5.8,14.5
	s-3,8.5-3.1,13.4c1.7-4.6,5.7-10.3,10.1-12c-3.8,5.8-5.6,14.9-7.2,21.6c-1,4.5-2.3,18.6,1.1,21.8c0.5-3.9-0.1-8.1,1.9-11.6
	c-0.2,7.7,2.1,19.4,7.1,25.6c-1-7.2-2-14.3,0.1-21.6c1.5-5.4,6-15.3,11-18.2c-1.5,3.8-1.6,6.7-1.7,10.9c0.5-2.4,0.9-5.6,3-7.3
	c-0.1,4.2,0.5,8,0.7,12.1c0.3,0.2,0.6,0.2,1,0c0.8-3,1.6-7.4,3.7-9.7c3.3,18-0.4,37.6,4.1,55.2c2.1,8.3,1.8,17.3,4.9,25.2
	c1.5,3.8,6.3,5.6,9.9,7.1c3.7,1.5,6.9,3,10.5,5c5.3,3,9.5,4.7,15.6,3.5c2.7-0.5,4.7-1.6,7.5-1.9c3.3-0.3,6.1-0.4,9.3-1.3
	c5.3-1.6,10.2-4.1,15.5-5.7c2.6-0.8,5.7-1.4,5.3-4.8c-0.3-2.7-3.3-4.2-5.9-4.2c2.1-2.7,5.1-5.9,8.2-7.6c2.4-1.3,9.9-3.8,7.7-8.3
	c-1.8-3.6-9.8-1.7-12.5-0.6c-4,1.6-7.5,3.3-11.8,4.1c-4.4,0.8-8.7,2.1-13.5,1.8c-5.6-0.3-7.7-1.7-8.3-7.7
	c-0.8-8.2,3.2-18.1,9.3-23.8c7.4-6.8,18.7-9.8,16.6-22.2c-0.7-3.9-3.7-8.2-6.2-10.9c-3-3.2-7.2-4.9-9.9-8.2c2.6,1,5.7,2.8,8.4,3
	c-1.4-1.2-2.9-2.6-3.9-4c1.4,0.1,2.5,0.5,4,0.4c-0.4-1.6-1.8-2.6-2.7-3.9c3.1-0.3,5.5-0.6,8.5-1.3c-3.1,0.2-5.7-1.9-7.4-4
	c0.4,0.1,0.9,0.2,1.3,0.3c-2.2-1.2-4.3-3.6-5.5-5.7c1.9,0.5,3.8,1.9,5.8,1.6c-2-3.5-7.3-4.4-9.3-7.4c2.4-0.3,4.4,1.6,7,0.9
	c-1.2-2-3.4-3.2-4.8-5c-1.6-2.1-3.2-4.5-4.4-6.8c-2.8-4.9-7.8-10.4-9.3-15.7c1.2,0.8,2.3,1.8,3.7,2.4c-3.5-5.8-2.1-14.1-5.7-19.3
	c1.4,1,3.2,3.1,4.7,3.2c-1-5.3-2.8-11-3.3-16.6c-0.3-2.9,0-5.9-0.7-8.8c-0.6-2.6-2.6-5.9-2.3-8.8c2.1,1.7,3.7,5.6,5.2,8
	c-0.4-2.4-2.1-6-0.8-8c4.6,8,9,16.7,10.9,25.9c3-5.7-0.6-18.2-2.8-24c3.1,3.9,5.4,8,8.1,12c-0.3-1.2,0.3-2.2,0.4-3.1
	c2.4,1.5,3.3,5.1,4.4,7.4c1.4,2.8,2.9,5.6,4.4,8.4c2.8,4.9,5.8,7.8,9.9,11.6c-4.3-5.9-7-14.5-9.4-21.5c1.4,3.1,5.7,6.6,7.7,8.8
	c2.1,2.3,4.1,4.8,6.3,7c-1.3-1.4-2.1-3.3-3.1-4.9c-1.7-2.6-3.8-4.8-5.3-7.6c-2.3-4.5-5.9-8.9-7.8-15.2c1.9,4,5.6,8,8.1,11
	c2.9,3.5,5.3,7.3,8.2,10.8c4.1,4.9,9.3,9.1,14.2,13.2c-3.1-7.3-10.3-11.7-15.3-17.9c-2.6-3.3-5.9-6.6-8.1-10.2
	c-2.1-3.3-3.3-7.3-4.9-11c2.6,4.9,8.5,9.3,11.8,13.4c1.7,2.1,3.7,4,5.5,6c-3.7-5.5-7.1-11.6-8.3-17c2.6,2.7,4.3,6.5,7.1,9
	c-1.5-3-4.5-6.2-4.1-9.8c2.5,1.7,5,6.5,7,8.9c2.4,3,3.9,6.6,5.9,9.7c0.1-5.5-3-10.6-5.9-15.1c-3-4.7-6.2-9.5-9.3-14.2
	c3.5-0.1,6.6,5.3,8.5,7.7c2.3,2.9,5,6.1,7.7,8.6c0.1-3.6-5.2-10.4-6.9-13.9c4.7,3,8.9,9.9,10.1,15.2c2.2-3.5-1.7-9.9-3.2-13.5
	c-1.8-4.4-3.2-9.3-6.1-13c4.3,1.3,6.7,6.4,9.4,9.5c1.3,1.6,2.8,2.4,3.9,4.2c1.3,2.1,1.6,4.7,3.6,6.3c0.5-4.7-1.4-9.5-3.5-13.8
	c1,1.7,2.6,2.9,3.6,4.9c-0.5-4-1.6-7.4-1.1-11.6c2.6,1.2,3.3,4.1,4.7,6.4c1.3,2.1,3.4,3.6,4.6,5.7c-0.5-1.7-0.2-4-0.6-5.7
	c-0.7-3-1.6-5.5-2.8-8.3c-2.1-5-3.7-10.6-6.6-15.1c3.6,1.7,9.8,8.7,12.4,14.5c-0.9-3-2.2-5.9-3.6-8.7c-1.3-2.5-2.4-5.2-3.7-7.7
	c-1-2-3.3-4.2-3.3-6.4c5.8,5.6,13.7,11.8,15.3,20.3c0-3.8-0.3-7.8,0.1-11.6c3.5,4.2,2.4,12.3,3.4,17.5c2-5.3,0.7-11.3,2.4-16.8
	c-0.1,5.1,0.1,9.7-1,14.6c-0.8,3.2-2.3,11-0.9,13.5c1.5-3.1,2-7,3.8-9.9c1-1.5,2.7-2.9,3.9-4.4c-0.4,1.6-0.8,3.2-1.5,4.7
	c-1.4,3.2-3.2,6-4.8,8.9c3.2-0.3,7.7-6.4,9.7-8.8c-0.5,2.2-1.3,4.9-2.2,7.2c-1.1,2.4-5,5-5.1,7c6.6-3.6,16.6-6.8,20.9-13.6
	c-1.6,2.6-2,5.7-3.7,8.3c-2.1,3.3-6.1,5.2-8.3,8.2c3-1.7,7.1-2.3,10.4-4c3-1.5,5.5-3.7,8.3-5.3c0,5.8-5.9,8.9-9.3,12.2
	c2.3-0.5,5.5-2.6,7.1-4.4c-1.1,3.5-3.5,6.8-6.3,9.3c5.2-1.8,10.4-6.4,14.5-10c-1.1,2.4-2.6,4.8-4.1,7c-1.9,2.9-4.5,5-6.3,7.7
	c6.2-2.6,11.2-10,17.4-11.8c-2,5.2-7.6,9.5-12.1,12.8c10.6,1.1,18.1-7.1,26.3-11.6c-4.4,6.5-10.5,12.5-17.4,16.5
	c3.1,0.4,8-3.3,10.5-4.9c4.2-2.5,8.5-5.2,12.4-8.1c-1.9,2.2-3.2,5.7-4.8,7.6c-3.1,3.6-8.7,7.6-13.4,9.5c4.3-0.6,9.6-4,13.4-6.1
	c2.5-1.4,6.1-2.9,9-4.8c-0.9,1.2-1.7,2.5-2.6,3.6c-3.8,4.6-9.4,9.2-15,11.4c5-1.2,10.1-4.1,14.6-6.5c4.1-2.3,8.2-6.5,12.4-8
	c-3.2,3.2-5.8,6.4-9.7,9.2c-4,2.8-9,5.2-12.6,8.3c3.2-2,7.9-3.5,11.4-4.7c-1.9,1.5-3.2,3.7-5.1,5.3c-2,1.6-4.6,2-5.7,4.6
	c2.9-1.1,5.6-2.6,8.6-3.4c-0.2,3.1-7.8,6.7-10.4,7.9c2.6-1.1,5.3-1,7.9-1.9c4.2-1.6,8.3-4.3,12.1-6.5c5.2-3.1,10.5-6.4,15-10.6
	c-4.2,3.7-6.9,8.9-10.4,13.2c-3.4,4.2-9.4,5.9-12.3,9.9c8.5-2.6,16.6-9,23.6-14.3c-4.8,8.9-11.5,15.6-19.9,21.1
	c1.6-1,3.8-1.5,5.6-2.3c-1.1,2.4-4.1,3.5-5.2,5.7c2.9,0.3,5.8-1.2,8.2-2.8c1.8-1.2,21.9-15.7,25-18.1c4.2-3.3,15.5-10.7,14.6-0.1
	c-0.6,6.9-1.1,14.5-2.4,21.2c-0.7,3.5-1.1,7.1-1.7,10.7c-0.3,1.8-0.1,4.3-0.2,6.6c1.5-6,4.5-17,7.2-19.6c-1.4,2.6-0.5,7.5-0.5,10.6
	c0,4.4-0.3,9,0.1,13.4c2.7-2.5,2.8-8.7,4.5-12c-1.5,7.2,3.2,18.3-0.5,25c1.5-3.4,4.8-6.3,5.4-10c0,1.6,0,3.2,0.2,4.7
	c0.6-1.2,1.1-2.5,1.7-3.8c-0.1,3.8,0,7.6-0.1,11.4c1.7-2,2.1-4.9,3-7.3c-0.1,3.7,0.2,7.2,0.7,10.9c0.7,4.9-0.3,8.8-1.4,13.5
	c2.5-3,3.4-7.8,4.2-11.4c-0.1,7.2,0.1,14.5-1.2,21.5c1-3.6,4.6-7,4.9-11c1.1,1.8,0.7,7,1.1,9.4c0.6,3.2,1.5,6.9,0.7,10
	c1.8-1.1,2.4-3.8,3.5-5.6c0,1.9-0.2,3.8,0.6,5.5c0.3-1.3,0.9-2.5,1.2-3.7c-0.3,2.3,0.7,7.5,1.6,9.2c0.3-1.3,0.6-2.6,0.7-3.9
	c-0.4,7.6,3.3,16.6,6.5,23.2c0.3-3.1-1.3-6-1.2-9.1c0.1-3.3,1.4-6.1,2.8-8.8c-0.6,2.8-1.2,10.1,2.5,11c0.6-1,1.1-2.6,1.6-3.4
	c1.1,9.3,0.2,19.5,0.1,28.9c0,8.4,2.3,17.2,6,24.7c0.9-0.9,1.3-2.4,1-3.9c1,5.4-0.1,11.5-0.6,16.9c-0.2,3.1,0.5,5.5,1.2,8.2
	c0.3,0.9,0.4,3.4,1.3,4c2.1,1.6,1.8,0.2,2.8-1.1c2.6-3.3,4.3-9.5,6-13.5c2-4.7,3.8-9.7,4.7-14.8l-1.2,12.4c-2.2,3.7-0.8,13.2,0,17.1
	c0.5,2.8,1.6,5.3,2.3,7.8c0.9,3.5,1.4,5,4.1,1.6c6.9-8.6,5.1-24.8,9-32.3c0.8,7.5,2.3,12.1,1.8,18.1c-0.2,3.1-2.2,19.8,2.5,13.7
	c3.8-4.8,5.7-9.6,6.8-13.3c0.9-3.2,2.3-16.1,5.9-16.3c1,6.5-0.4,13.7,4,19.1c2.5-3.7,4.3-13.7,6.6-20.5c1.1-3.4,1.9-7,3.1-10.5
	c1.2-3.5,3.5-7.7,2.9-11.6c0.4,1.1,1,2.2,1.8,3.1c1-2.2,0.4-4.9,0.7-7.4c0.6,0.6,1.7,0.9,2.3,1.5c0-4.3-2-8.7-3-12.8
	c-0.9-3.7-0.5-9.6-2.3-12.8c1.9-0.7,3.9-1.6,5.8-0.8c-0.4-0.8-0.5-2-1-2.8c2.3-0.6,4.7,0.2,6.3,1.6c-0.1-2.4-2.6-3.9-4-5.7
	c1.2,0,2.4,0.6,3.4,1.4c-1.2-1.5-1.8-3.4-2-5.1c0.6,0.7,1.4,0.7,2,1.2c-0.1-0.8,0.3-1.9,0.2-2.7c1.5,1.2,2.8,2.5,3.5,4.4
	c-0.3-8.9-7.4-11.6-14-15.8c1.3-0.2,2.6,0.1,3.7,0.7c-1.3-1.5-1.6-3.7-2.7-5.2c0.6,0.1,1.1,0,1.8,0.2c-0.2-0.4-0.3-1-0.6-1.4
	c1.8-0.5,3.9,0.1,5.3,0.8c-1.5-3-4.5-4.3-6.4-6.9c1.6,0.1,3,0.7,4.4,1.2c0-3.2-2.9-3.3-4.7-5.1c-1.1-1.1-2.3-3-3.4-4.4
	c-2.4-3.1-4.2-6.7-6.5-9.9c-4.7-6.9-9.6-13.3-14.3-19.9c1.5-0.1,2.5,0.6,3.9,1c-1-1.4-2.6-2.2-2.7-3.9c0.7,0.4,1.6,0.6,2.2,0.9
	c-0.7-1.5-1.6-3.3-2.8-4.5c1.9-0.3,3.3,1,5.1,1.1c-2.4-0.4-3.8-3.4-5-5.3c-1.3-2.1-2.6-3.1-4.1-4.9c-2.2-2.4-4.6-11.7-8.4-11.1
	l4.1-1.2c0.4,0.2,0.7,0.4,1.1,0.5c-1-2.6-3.6-4.2-5.2-6.3c3.7,1.1,5.5,6.2,9.3,6.9c-1.8-4.4-5.3-8-8-11.9
	c-2.3-3.2-9.8-8.3-10.1-11.6c1.8-0.5,3.5,0.2,5.1,0.4c-1.6-1.7-3.1-2.9-4.3-4.8c2.1-1,4.1,0.2,6.2,0.1c-0.9-1.6-3.3-2.5-5.2-2.4
	c1.9-2.5,6,1.3,8.2-0.3c-3.4-1.8-7.5-2.5-11.1-3.8c-0.2-3.2,6.5-0.9,8.7-1.2c-1.3-3-5.6-3.6-8.2-5.4c1.5-1.2,7.1,2.3,8.7,3.6
	c-1.2-3.5-5.6-4.9-8.7-6.6c1.4-0.4,4.3,0.5,6.3,0.6c-2.1-1.7-5.4-2.4-7.4-3.9c3.5-0.1,6.6,3,9.9,3.3c-2.4-3.4-6.6-4.4-10.4-5.8
	c2.6-0.1,5,1.5,7.3,1.1c-1.5-2.9-8.9-5.6-12-5.2c2.3-1.7,5.6,0.5,7.4-0.5c-3-1.3-6.9-2.4-9.4-4.2c2.8-0.5,5.2,0.8,8,0.5
	c-2.4-1.2-4.7-3.1-7.3-3.6c6.7,0.1,10.7,1.5,16.3,5.1c-2.2-3-5.9-4.3-8-7.4c2.6,1,5.5,1.7,8.1,3.3c2.4,1.6,4.3,4.5,7,5.4
	c-1.9-4.5-8.6-9.6-12.3-12.2c2.4,0.4,4.7,2.6,6.9,3.8c-2.8-3.6-6.3-7-10.4-9.2c2.2,0.4,4.1,2.3,6.3,2.3c-2.5-3.6-7-5.4-10.4-8.2
	c1.6,0.1,3,1.1,4.4,1.7c-2.8-4.1-9.1-3.9-12.7-7c2.2,0.5,4.7,0.4,6.7,1.9c-1.9-1.9-4.4-3.7-6.7-4.9c-3.2-1.7-6.3-0.8-9.4-2.1
	c1.8-3,4.2-1.3,6.8-1.5c-1.5-1-5.4-2.9-7.4-2.8c3.5,0,8.1-0.3,11,1.7c-1.7-1.8-7.6-4.9-10.4-4.8c1.2-1.2,2.8-1.8,4.4-1.8
	c-1.4-0.6-2.9-0.5-4.5-0.6c0.5-1,1.5-1.3,2.6-1.2c-1.8-0.4-3.7-1.5-5.4-2.2c2.1-0.9,5.3-2.5,4.4-5.3c-0.1,0.1-0.4,0.7-0.6,1
	c-2.3,1-4.9,0.7-7.4,0.7c1.2-0.7,1.7-1.6,1.5-2.9c-1.3,0.6-3,0.8-4.4,0.5c1.7-0.3,2-1.8,1.5-3.5c-2.3-0.2-4.3,0.2-6.3,0.4
	c-0.1-1.4,0.7-2.7,1-4c-0.7,0.4-2,0.2-2.8,0.4c0.3-0.4,0.3-1.1,1.1-1.5c-1.8-0.2-4.2-0.5-5.8,0.4c1-1.9,3.5-4.5,2.8-6.9
	c-5.4,1.8-9.7,1.8-12.4-3.6c-1.1-2.2-2-4.2-3-6.3c-0.9-1.9-2.8-2.7-0.5-4.7c-2.5-0.8-4.6-3-5.2-5.3c2.2-0.1,4.2-0.4,6.4-0.8
	c-2-1.4-5.2-2.2-7.4-3.9c1.6-0.2,3.4-0.1,5-0.2c-1.6-1-3.4-1.6-4.9-2.9c2.6,0,5.1-0.6,7.8-0.5c-3.8-2.2-8.6-2.3-12.6-4.3
	c-2.8-1.4-10.6-7.6-10.2-10.9c1.4,0.5,2.9,1.6,4.6,1.6c-3.4-2.8-5.6-6.8-5.7-11c5.9,5.5,10.1,12.2,15.3,18c-1.5-4-6.7-10.4-6.3-14.6
	c2.1,0.3,4.4,3.4,5,5.9c-1-6-5.6-15.1-9.8-19.3l0.6-5.6c-0.4,0.1-0.7-0.1-0.7-0.6c2.8-4.5,3.8-11,5.4-15.9c1.6-4.7,2.6-9.6,4.6-14.3
	c4.5-10.6,7.6-21.2,10.8-32.3c2.6-9.1,4.3-18.7,5.9-28.3c0.7-4.4,0.6-9.3,1.7-13.6c1.2-4.6,2.1-8.9,2.9-13.6c1.9-10,4.2-19,4.2-29.5
	c0-5.6,0.7-7.3,3.7-11.6c2.1-3.1,3.8-7.9,6.8-10.1c-1,3.2-3.7,6.1-4.5,9.3c1.7-0.9,3.4-0.7,5.2-1.8c2.1-1.3,3.2-3.9,5.2-5.1
	c-0.1,6.6-8.7,10.4-10,16.3c2-1.6,4.9-2.1,7.1-3.9c2.4-1.9,5.4-4.9,7-7.5c-1.8,6.5-8.3,10.8-11.1,16.3c4.7,0.1,11.2-7.2,14.3-10.4
	c4.5-4.7,8.4-9.7,12.4-14.7c3.9-4.9,8.5-9.6,11.8-15c2.7-4.5,6.3-9.9,9.8-13.4c-0.4,1.5-1.2,3-0.6,4c1.3-2.5,3.4-4.5,4.9-6.8
	c-0.3,1.3-0.6,2.3-0.6,3.7c2.5-2.3,4.2-6.3,6-9c-0.2,4.4-1,8.5-1.7,12.8c-0.4,2.8-1.1,5.2-2.5,7.7c-1,1.8-2.7,2.8-2.3,5.1
	c3.8-2,4.7-7.9,8.1-9.7c-1.4,3.9-3.9,8.2-5.1,12.2c3.5-0.1,6.4-7.1,7.7-9.9c1.6-3.3,3.3-9.8,6.2-11.8c0.3,2.6-1.5,6.1-2.3,8.6
	c2.7-4.4,4.8-9.3,7.3-13.8c1.6,2.6-0.9,7.4-1.8,10c-0.9,2.7-1.6,5.2-3.1,7.6c-1,1.6-2.5,2.7-2.3,4.6c4.6-0.2,11.3-7.7,11.7-12.7
	c-0.1,3.3-1.9,6.1-1.8,9.1c2.5-4.3,7.1-7.1,9.5-11.4c-1.1,2.2-0.7,4.6-2,6.9c-1,1.8-2.8,3.2-3.4,5.1c6.3-1.6,7.2-7.6,9.9-12.8
	c2.4-4.5,5.9-8.7,7.9-13.3c-0.1,3.3-1.5,6.4-1.2,9.6c0.8-0.9,1.4-1.6,2-2.7c1.8,2.4-1.7,5.1-1.8,7.6c2.9-1.8,5.4-6.1,5.9-9.3
	c2.4,5.5-4.6,12.7-8.3,16.4c5.5,0.6,9-6.9,12.2-9.9c-0.1,3.5-2.9,6.7-3.3,9.9c3.2-2.5,5.1-8.9,6.8-12.5c1.1-2.2,2.5-3.9,3.1-6.4
	c0.5-2,0-3.9,1.6-5.2c1.1,2.5,0.8,5.6,0.7,8.4c0.2-2.7,1.5-7.5,2.3-9.4c2.6,3.5,0.7,14.5,0.6,19c4-5.1,3.6-11.2,7.1-16.1
	c0.5,4.1-1.2,8.4-1.2,12.6c4.6-9.8,7.8-20.2,9.4-30.9c1,2,0.7,4.5,0.6,6.7c2.2-4.2-0.3-9.2,0.7-13.3c0.7,0.4,1.1,1.1,1.4,1.9
	c-0.3-2.5-0.8-5.2-0.2-7.2c2.7,1.5,5.3,6,6.5,8.8c2.1,4.9-1.3,9,0,13.5c3.2-0.9,6.9-9.3,7-12.3c0.1-6.1-2.4-11.9-1.7-18.2
	c0.2,0.1,0.4,0.3,0.6,0.5c-0.8-1.2-1.6-2.2-2.4-3.4c2.3,1.2,5.7,6.6,5.8,9.2c3.3-6.4-0.4-15.3-5.2-19.7c4.3,4.2,8.7,7.7,12.4,12.6
	c-1.7-4.7-3.2-9.8-5.4-14.4c2.6,1.8,5.5,5.6,6.6,8.4c0.2-4.9-3.5-9.5-3-14.4c0.6,0.9,1.3,1.5,1.8,2.6c0.1-3-1.6-5.5-3-7.9
	c3.1,3.7,8.4,7.4,8.9,12.6c0.4-3.3-0.7-7.9-1.8-11c-1.2-3.7-3.8-5.9-5.4-9.2c3.3,2,5.8,5.8,7.8,9c-1-3.5-0.8-7.4-2.2-11
	c-1.5-4-4.2-6.6-6.4-10c1.6,1.5,6,5.9,8,5.8c-0.5-3.6-6.9-7.7-8.6-11.6c2.5-0.1,4.6,2.5,7.4,2.1c-0.8-1.3-2.2-2.2-3.2-3.5
	c2.2,2.2,7.2,7.4,10.3,6.5c0.4-7.2-10.7-12.1-10.5-18.7c2.9,1.7,6.2,4.2,9.9,3.4c-0.4-3.4-6-7-8.8-10.6c2.2,2.1,6.5,2.7,9.2,2.5
	c-2.2-1.8-6-8.3-5.6-11.1c2.6,1.8,5,5.9,8.7,5c0.5-3.4-5.8-8.7-8.1-10.9c2.3,1.2,4.5,3.1,7,3.8c-1.6-3.9-5.2-5.9-7.4-9.3
	c2.2,1.1,4.5,3,6.8,3.4c-1.2-3.8-3.6-6.5-6.2-9.3c2.5,2.1,4.6,4.9,8,5.8c-0.2-3.2-3.3-5.8-5.9-8.2l0.7-3.5c-1.6-0.4-3.2-1.2-4.5-2.2
	c2-0.2,4.1-0.1,6.1-0.1c-1.5-0.7-2.7-2.1-4.3-2.8c1.7-1.1,4.3-1.1,6.1-0.1c-2.3-1.9-6.7-3.6-8-5.9c2.3-0.2,5.4,0.7,7,0.1
	c-1.7-1-4.1-2.1-5.2-3.6c3.7-0.4,7.5,0.1,11,0.4c-2.6-1.9-6.3-2.9-8.6-4.9c2.5,0.8,6,0.5,8.6,0.2c-1.8-1.4-4.2-2.4-6.1-3.5
	c3,0.7,6.2,1.1,9.1,1.7c-5.3-3.6-10.8-7.5-15-12.2c3.9,1.9,8.1,3.8,12.2,5.3c3.7,1.3,8.3,1.2,11.6,3c-2.7-2.3-8.1-3.9-9.7-7
	c4,0.5,8.6,2.1,12.3,3.3c-2-2.8-7.3-6.8-10.5-8.3c2.9-1.1,7.7,2.4,11.1,2.4c-2.7-2.2-5-5.7-7.8-8.2c-2.1-1.8-6-3.8-6.9-6.4
	c4,0.6,7.7,3.3,11.7,3.9c4.5,0.7,9-0.5,13.4-0.4c-4.1-2-10.3-1.9-13.9-4.6c3.8-0.5,7.9,0.3,11.7-0.3c4.3-0.6,8.1-0.1,12.4-0.6
	c-2.1-1.8-6.2-1.8-8.8-2.8c-2.9-1.2-6.3-2.2-8.9-3.9c4.4,1.6,12,1,17,0.9c-5-0.3-21.3-8-20.9-12.3c1.6,0.8,3.7,1.6,5.6,1.7
	c-3-1.1-4.4-7.1-5.5-9.6c-1.8-4-5.7-6.9-8.4-10.4c4.5,0.9,7.6,5.1,11.7,7.3c-2.4-2.2-3.6-8.8-3.4-12.1c1.3,0,2.5,0.8,3.2,1.9
	c-0.8-1.7-1.9-3-3.2-4.3c2.3,0.3,4.4,2.1,5.9,3.8c-0.3-1.6-0.8-2.9-2.3-3.4c-1.4-5.4-6.4-5.9-9.4-9.9c2.9,0.8,6,3.2,8.4,5.3
	c-3.2-3.5-5.1-8.1-8.2-11.7c-2.2-2.6-6.5-5-8-7.7c3.5,1.4,7.7,4.2,10.9,6.3c-1.6-1-2.8-3.1-4.1-4.5c-1.5-1.7-2.7-2.8-3.9-4.8
	c3,0.4,6.1,2.8,8.6,4.7c-1.4-2-2.9-4.1-4.5-6s-5-3.4-5.2-5.8c2.5,1,5.6,2.6,8.5,2.3c-4.9-4.5-11.4-8-16.9-11.8
	c-2.2-1.6-5.8-3.1-6.6-5.9c-1.2-3.8,2-4.3,3-7.2c0.7-2.1,0.4-4.5,1.2-6.5c0.7-2.1,1.1-3.4,1.3-5.8c0.4-5,0.2-9.9,0.6-14.8
	c0.7-8.7,5.1-17.2,8.6-25.4c31.9-11.4,63-30.5,77-39.5c23-14.8,47.8-28.3,47.8-28.3v-27.7C1220,165.6,1191.7,185.1,1172.8,198.1z
	 M780.1,555c-1.3-5.2-6.2-17.7-13.9-15.6c0.4,2.8,4.4,5.6,6,8.1c1.9,3,3.8,7.4,3.4,11c-2.3-3.8-4.1-7-8.2-9.1
	c2.6,3.6,7.1,9,4.8,13.9c-2.4-5.2-5.5-12.8-13.1-10.9c2.1,3.6,7.1,9.9,4.8,14c-1.1-2.5-4.9-5.5-7.8-4.6c0.2,1.5,1.4,3,2.2,4.4
	c-0.9-0.5-1.9-0.9-2.7-1.5c1.2,1.9,1.7,4.3,2.6,6.3c-2-1.7-4.5-3.3-6.9-4.6c-0.1,1.9-1.7,6.7-1.2,9.5c0.9,0.7,1.6,1.4,2.1,2.1
	c-1.3-0.1-1.9-0.9-2.1-2.1c-1.4-1.1-3.2-2.1-4.5-2.6c1.5,2.5,3.2,7,2.7,9.9c-5.3-13.6-23.7-8.3-33-16.5c-8.8-7.8-11.7-22.9-11.2-34
	c4.4-2.4,11.7-1.3,16.8-1.3c-5.8-1.1-11.4-0.8-17.4-1.3c-0.2-6.6,2.6-10.9,7-15.4c2.8-2.9,6.9-11.2,11.7-10.6
	c0.4-5.4,1.4-11.8,2.3-17.2c1-5.5,0.8-11.6,2.5-17c1.3-4.1,1.9-11,6.4-13.1c5.1-2.4,10.5,1.5,12.7,6c3.2-0.5,5.1-4.8,8.1-5.8
	s8,0.4,10.6,1.4c5.4,1.8,13.8,12.2,13.6,11.7l1.8,8.9c0,5-1,8.6-2.8,13.1c-1.3,3.3-4,8-3.8,11.6c-1.2-0.4-2.3-1.5-3.3-2.3
	c0.1,1-0.3,2.2-0.1,3.3c-1.4-0.5-3.3-0.4-4.7-0.9c-1.4,5.7,3.4,12.2,5.9,17c2.5,4.6,4.1,9.4,6.3,14.1c-3.5-2.3-6.5-7.1-9.4-10.3
	c-0.4,4.6,5.4,10.1,7.5,14C778.2,542.6,783.1,550.4,780.1,555z M1024.8,329.1c-2.9,3.8-3.9,9-6.6,12.9c3.8-1.3,6.6-3.9,9.7-6.3
	c-4.6,7.5-6.7,16.1-10.5,24c-4.2,8.8-8.2,16.1-15,23.2c3.1,0.1,5-0.7,7.5-2.2c-2.8,4.4-5.4,6.7-9.9,9.8c1.8,0.3,3.4-0.4,5-0.5
	c1.6,6.4-9.1,10-12.7,13.5c3.3-0.7,7.1-2.2,10.3-2.3c1,4.3-5.2,7.3-8,9.4c1.4,0.2,4.9-1.4,5.6-0.1c0.7,1.3-2.7,3.8-3.4,4.7
	c1.9-0.3,5.4-0.9,6.9-2.2c1.5,7.7-10.2,11.3-13.4,16.3c1.9,0.5,4.1,0,5.7-1c0.7,3-3.1,4.4-4.5,6.6c-1.3,2.1-2.9,5-4.2,7.4
	c2.1-0.2,4.2-2.1,6.4-2.8c-1.7,2.4-4.3,3.6-5.7,6.4c-1.3,2.5-2.3,6-3.2,8.6c1.2-1.1,2.7-2.1,4.1-2.7c-0.9,4.1-4.4,8.3-6.3,12.2
	c1.9-0.7,3.7-2.1,5.8-2.8c-0.3,3.3-2.5,6-5,8.2c1.2,0.9,2.5,0.4,3.8,0.1c-0.8,1.5-2.5,2.4-3.9,3.5c2,0.1,3.9-0.2,5.6-0.5
	c-2.4,12.4-15.5,10.8-24.5,14.7c0.3-0.1,0.6,0,0.9,0.1c-3.9,1.5-9.2,2-13.5,3.4c-4.9,1.6-9.7,3.4-14.1,5.8c2.1-3,8.2-4,6.9-9.2
	c-3.2,2.1-6.1,4.2-9.4,6.1c1.2-2.1,3.5-4,3.6-6.6c-1.1,2-2.6,3.8-4.6,4.9c-0.4-3.6-0.2-4.3-2.9-7c-1.7-1.7-3.5-3.9-5.4-4.5
	c0.9,2.4,3,5.4,1.1,8c0.1-3.8-1.4-9.7-6.4-9.1c-0.4,5.2-0.1,8.1-3.8,12.2c-3.5,3.9-6.8,5.3-11.6,6.6c0.9-1.2,2.5-2.2,2.1-4
	c-3.1,1.5-5.1,0.3-8.6,0.6c1.2-0.5,2.5-1,3.3-1.7c-2.6,0.4-5.4,0.7-8.2,0.3c2.6-2,4.6-5.2,7.2-7.4c2.3-1.9,5.4-3.4,7.9-4.9
	c-3.3,0.4-6.2,1.3-9.1,2.9c1.8-4.3,9.8-7.8,14-8.3c-2.1-1.3-6.7,0-9.4,0.3c-3.2,0.3-6.9,0.7-10,0.9c0.7-3.9,9.2-5,11.7-6.8
	c-10.7-1.3-25,0.2-32.9,7.5c0.5-1.5,1.9-2.8,2.8-4c-3.4,1.8-7,2.6-10.6,4.5c-3.6,1.9-6.8,4.8-10.5,6.4c3.1-5.3,4.7-10.1,5.3-16.3
	c0.6-6.8-2.6-12.6-4.9-18.8c-1.8-4.9-4.8-9.8-9.3-13.1c-2.8-2-5.1-3.3-1.8-6.3c2.2-2,5.6-2.1,8-3.1c-4.4-1.9-10.3-0.1-14.1,2.2
	c-1-2.1,0.2-4.1,0.1-6.2c-2.2,0.4-3.8,3.3-6.2,4c-3.9-3.4-8-6.4-12.1-9.8c-2.1-1.8-4.1-3.8-6.5-5.3c-1.4-0.9-2.9-1.3-4.3-1.9
	c1.2,0.8,1.9,1.8,1.4,3.4c-3.1-0.8-6.1-2.8-9.3-3.5c-3.8-0.7-8-1.2-11.8-1.8c-7.6-1.3-15.9-1.3-23.5-2.9c0.3,0,0.7,0,1,0l-4.7-4.1
	c0,0.4-0.1,0.7-0.6,0.7c-1.5-0.8-3-1-4.7-1.4c1.5-0.9,4.1,0.2,5.8-1.2c-0.8-2.3-5.2-2.1-4.6-5.1c1,0.1,2.4-0.3,3.4-0.2
	c-1.5-2.3-5.9-1.8-2.3-4c2.6-1.7,5.8-0.2,8.7-0.6c-1.9-0.6-6.8-0.5-8.1-2.2c-1.8-2.3,1-4.3,3-4.9c5.7-1.6,11.4,1.6,16.3,3.6
	c-1.6-1.9-3.5-2.9-5.5-4.2c2.2,0.1,8.7,2,9.8,1.4c-4.2-2.4-8.5-5.5-13.5-5.6c3.9-2.5,14.4,0.2,18.2,2.4c-2.5-7.1-11-8.2-16.4-10.4
	c3.1-0.6,6.1-0.8,9.4-0.7c3,0.1,5.9,1.2,8.8,1.1c-2.8-5.6-12.9-5.5-18-7c6.3-5.7,17.9,0.9,25,0c-2.5-2.1-13.4-3.5-12.7-7
	c1.3,0,2.7,0,4-0.2c-2.2-3.5-7.3-2.9-9.9-5.1c4.1-0.7,7.9,1.5,11.6,2.2c-4.2-4.6-9.9-5.9-15.6-7.6c4.1,0,8.3-0.3,12.2,0.6
	c3.3,0.8,8.6,3.5,11.8,2.8c-4.7-6.1-12.6-12.7-20.4-14.1c6.6-0.8,12.6,4.7,18.6,5.2c-4.3-5.7-15-6.5-21.2-8.7
	c-5.9-2.1-13.4-5.9-18.1-10.1c2.7,1.7,7.3,2.1,10.4,2.9c3.5,0.9,8,2.4,11.6,1.9c-6.5-5.6-15.6-6.2-20.9-13.5
	c3.6,1.4,11.6,6.5,15.2,4.2c-4.3-2.3-8.9-4.2-12.2-7.7c4.4,1.1,8.5,4.1,13.2,4.6c-4.8-1-11.3-5.6-15-8.8c-2.8-2.4-10.1-7.2-8.9-11.8
	c3.6,2.5,6.1,5.7,10.1,8.1c3.7,2.2,8.9,4.4,13.4,3.6c-2.2-2.8-7-3.9-9.1-7c1.6,2,6,1.9,8.4,1.9c-3.5-2.7-10.6-5.5-12.2-9.8
	c0.6,0.3,1.2,0.6,1.8,0.9c-1.8-2.4-5.3-4.3-5.7-7.5c1.9,0.7,3.6,2,5,3.5c-3-3.6-6.7-8.6-6.3-13.5c2.3,5,6.2,7.2,11.2,9.2
	c-3-4.8-8.5-8.7-9.9-14.6c2.3,1.4,5.7,1.9,7.7,3.9c-1.8-3.1-4.5-5.9-5.9-9.1c0.8,0.2,2.1,0.1,2.8,0.4c-0.2-2-1.6-4.1-1.6-6.3
	c2.3,1.9,4.7,3.3,8,2.9c-2.8-3.7-5.7-7.1-7.8-11.2c1.9,2.3,5.5,4,8.1,5.6c-5.4-7.4-10-14.1-11.3-23.4c-0.6-4.6,0.8-9.6,0-14.2
	c-0.6-4-2.1-7.1-1.7-11.7c4.1,1.3,4.1,12.1,4,15.7c3.5-2.5,3.8-10.6,4.2-14.5c0.4-5.6,0.7-11.4,0.6-16.9c0.7,1.9,1.9,3.9,2.4,5.8
	c0.6,2.4,0.2,5.2,1.2,7.4c0.5-3.6,1.7-6.5,1.3-10c-0.4-3.1-2.6-7.5-0.9-10.4c1.5,3.2,5.6,6.6,5.5,10.4c0-6.3,0-12.9,0.7-19.2
	c4.1,2,1.6,7.1,3.3,9.9c0.9-3.8,1.6-7,2-11.1c1.4,0.2,1.9,1.6,1.6,3.3c1.7-3.7,2.7-7.9,2.3-12c0.6,0.8,1.7,1.6,2.3,2.1
	c0.2-1.9,0-3.9,0.2-5.8c1.9,0.3,1.6,2.8,2.3,4.4c0.6-2.6,1.7-7.7,2.8-9.8c0.5,1.6,1.1,3.3,0.7,5.1c2.5-4,1.9-10.2,2.6-15.1
	c21.4,12.8,40.8,24.3,56.2,33.6c114.8,69.2,139.6,81.8,178.2,90.9c0.4,0.8,0.9,1.6,1.4,2.4c1.3,1.9,2,3.4-0.1,5.8
	c-1.7,1.9-3.7,3.9-5.3,3.2c-4.2-1.7-8.1-5.9-12.3-7.2c-3.7-1.2-8.4-3.7-11.3,0c-3.5,4.4,0.2,4.3,3.2,7.7c5.3,6,11.1,13.6,16.5,19.4
	c2.4,2.5,3.8,5.6,6.5,8.3c2.6,2.6,6.4,5.5,5.8,9.6c0,0,0.9,2.6,1.1,3C1031.6,322.1,1027.4,325.7,1024.8,329.1z"/>
</svg>
